<?xml version="1.0" encoding="utf-8" ?><svg xmlns="http://www.w3.org/2000/svg" xmlns:xlink="http://www.w3.org/1999/xlink" width="817.027" height="716.047" viewBox="103.966 156.656 817.027 716.047" fill="#2563EB"><path d="M107.469 541.38C109.432 542.863 111.928 545.324 113.747 547.069C166.664 597.814 249.746 598.922 318.497 599.078C342.796 599.133 365.82 598.65 389.838 601.516C414.989 604.516 438.042 611.496 461.457 620.897C467.966 623.498 475.14 626.007 481.466 628.976C481.656 669.395 481.023 708.892 471.961 748.499C463.329 786.225 444.312 818.785 417.753 846.661C408.46 856.415 399.982 864.959 388.278 872.154C412.615 839.066 446.708 777.486 450.855 736.084C449.659 738.761 448.482 742.07 447.475 744.84C433.157 784.205 414.337 822.988 378.422 847.033C370.898 852.07 361.995 856.52 353.743 860.424C337.873 850.547 322.083 844.025 306.39 832.57C324.556 834.542 350.876 828.361 367.087 820.454C392.209 808.201 404.161 784.362 412.604 759.028C383.072 790.46 347.911 825.132 302.727 829.611C290.926 824.631 258.146 801.106 248.233 792.513C303.742 812.197 371.81 764.414 403.864 721.833C407.245 717.341 410.493 712.777 413.689 708.153C421.911 695.653 428.164 685.73 434.902 672.547C389.301 705.803 351.166 768.795 296.452 784.808C275.676 790.889 252.491 790.732 233.254 780.013C212.933 768.691 197.789 746.36 191.469 724.335C208.295 736.016 223.358 739.064 243.607 739.948C296.338 742.249 342.352 714.62 379.745 679.691C369.85 684.908 357.784 692.084 347.923 696.821C334.484 703.277 314.276 710.411 299.819 714.178C266.057 722.976 223.769 732.354 191.825 713.839C162.355 696.757 147.289 666.1 139.033 634.461C161.13 655.042 193.205 666.508 222.684 671.367C267.739 678.794 312.922 665.358 355.808 652.985C369.415 649.15 383.068 645.481 396.764 641.978C418.458 636.404 438.231 633.695 460.3 630.391C430.584 621.881 403.442 625.605 373.302 628.533C316.825 634.02 258.807 649.573 202.169 639.554C184.759 636.475 169.992 632.532 155.107 622.628C133.126 608.003 121.213 586.336 113.341 561.739C111.098 554.731 108.943 548.675 107.469 541.38Z"/><path d="M915.041 542.939L915.358 543.258C916.144 549.896 903.609 579.772 900.025 586.801C891.158 604.185 876.059 619.947 858.473 628.607C810.008 652.472 732.923 638.376 681.04 630.999C661.752 628.345 642.363 626.478 622.922 625.402C599.612 624.126 582.944 623.144 560.403 630.421C580.535 634.074 603.667 635.13 623.081 640.951C681.389 658.433 739.31 679.126 801.381 671.492C829.108 668.082 861.226 653.119 883.406 635.698C878.435 652.018 874.047 665.814 865.383 680.574C831.359 737.871 767.254 727.795 713.546 710.051C686.072 700.973 670.406 693.496 645.626 678.19C674.431 707.648 704.385 726.512 744.925 737.167C769.766 743.696 809.756 739.151 831.721 725.609C828.053 737.224 822.864 749.225 815.099 758.708C789.321 790.531 747.004 798.767 710.9 778.819C663.019 752.366 631.731 706.489 589.021 672.618C593.428 683.216 599.907 693.443 605.877 703.273C636.804 750.79 709.983 811.891 770.388 795.117C765.505 799.663 730.549 826.787 725.753 827.618C684.312 834.794 637.86 786.321 612.116 758.832C620.943 786.182 632.46 807.778 659.152 821.3C678.284 830.993 696.224 833.566 717.286 833.384C704.578 840.995 684.025 852.809 670.438 858.39C666.256 857.427 661.644 855.788 657.799 853.892C610.769 830.69 589.346 781.868 572.159 735.508C572.556 741.469 574.81 751.221 576.514 757.243C588.168 798.433 610.756 837.697 634.961 872.703C616.032 859.527 607.843 849.927 593.42 832.814C543.069 773.071 542.498 703.058 542.465 628.773C573.718 615.821 591.593 608.298 625.836 603.429C643.752 601.011 661.793 599.639 679.868 599.321C697.02 599.07 714.491 599.904 731.879 599.485C788.815 598.113 848.174 592.382 896.401 559.104C902.886 554.629 909.027 548.196 915.041 542.939Z"/><path d="M116.571 156.656C118.185 157.37 129.975 168.344 132.194 170.262C138.513 175.792 144.997 181.131 151.635 186.273C201.816 224.834 256.541 253.981 312.907 282.122C349.599 300.441 381.98 318.561 413.758 344.618C465.289 386.873 487.256 448.814 493.986 513.42C496.659 537.049 496.629 559.368 498.635 582.605C493.354 574.192 486.036 561.945 479.885 554.43C444.78 511.539 398.384 477.249 348.223 454.154C309.505 436.397 269.486 422.063 231.065 403.626C190.418 384.122 149.469 360.558 129 318.34C119.509 298.766 117.319 282.597 117.585 261.214C118.043 255.32 118.438 249.487 119.217 243.623C139.248 268.327 154.342 285.056 180.619 304.168C219.983 332.797 263.447 351.862 307.103 372.606C370.96 402.947 425.942 441.507 464.542 501.914C472.301 514.082 479.233 526.757 485.292 539.855C489.339 548.83 492.643 557.769 496.557 566.661C492.838 541.382 485.424 516.786 474.553 493.662C434.071 407.08 355.498 360.096 270.024 325.528C224.037 306.93 176.747 296.437 142.958 258.209C110.652 221.659 114.292 201.01 116.571 156.656Z"/><path d="M906.78 325.322C914.391 347.724 909.497 380.807 899.624 401.957C853.509 500.737 722.984 505.87 634.175 542.18C596.698 557.503 553.53 584.724 530.272 617.849C544.349 607.385 558.226 596.539 572.417 586.341C584.788 577.451 596.231 572.229 609.476 565.663C647.131 546.997 680.198 542.861 721.61 542.567C748.263 542.379 780.759 538.517 805.997 528.836C837.349 516.81 855.849 497.097 873.324 469.321C877.105 463.611 879.963 456.741 883.657 451.038C893.706 435.527 901.212 421.047 908.568 404.111C909.839 408.353 910.948 413.724 911.974 418.108C920.993 460.288 917.852 494.626 889.18 528.736C860.849 562.439 826.283 576.083 784.217 583.994C765.907 587.435 747.364 589.489 728.745 590.14C714.937 590.594 699.63 589.709 685.657 589.523C667.51 589.176 649.36 590.098 631.342 592.285C608.993 595.06 584.085 601.44 562.845 608.884C550.212 613.312 537.835 618.982 524.93 623.337C525.203 622.683 525.484 622.034 525.773 621.388C531.747 608.075 537.707 594.603 545.05 581.974C591.553 501.987 657.738 488.893 737.812 458.519C791.141 438.197 839.117 405.951 878.073 364.245C890.766 350.656 899.065 342.407 906.78 325.322Z"/><path d="M116.778 325.887C117.347 326.654 119.392 330.983 120.119 332.267C123.009 337.369 125.828 341.835 129.534 346.397C143.649 363.774 161.317 380.883 178.291 395.38C188.165 403.414 198.404 412.225 208.901 419.37C252.711 449.19 305.1 465.173 354.293 483.334C414.223 505.458 460.608 540.769 488.448 599.248C492.224 607.18 495.566 615.341 499.056 623.493C458.031 608.577 419.84 592.08 375.443 589.763C358.436 588.876 341.904 589.606 324.957 589.693C253.628 590.044 168.843 579.9 124.763 516.218C103.966 486.173 105.473 452.778 112.127 418.872C113.185 413.789 114.158 408.688 115.045 403.572C122.433 425.423 136.204 445.434 148.021 465.1C160.786 486.342 171.977 500.823 192.568 514.873C249.244 553.546 319.337 534.833 381.454 552.49C423.228 564.365 460.528 593.067 494.854 618.53C488.825 609.547 479.732 601.357 471.901 593.906C450.62 573.655 425.256 557.91 398.381 546.192C318.64 511.422 183.993 497.716 133.944 420.922C115.584 392.751 109.97 358.708 116.778 325.887Z"/><path d="M906.684 157.888L907.239 158.554C908.597 167.64 908.39 176.643 908.914 185.724C910.364 210.828 902.54 230.538 886.998 250.176C847.268 300.374 781.993 314.566 725.948 338.559C698.37 350.641 671.941 365.19 646.982 382.03C579.246 428.317 542.43 486.187 527.181 567.118L526.765 568.089C525.701 564.75 528.32 534.372 528.713 529.461C532.355 483.989 541.029 436.112 564.051 396.123C570.315 385.243 579.613 374.082 588.321 364.912C635.948 314.751 703.14 287.68 763.111 255.659C790.809 240.87 818.349 224.448 844.211 206.658C866.222 191.517 886.247 175.016 906.684 157.888Z"/><path d="M903.93 244.391C904.366 244.837 904.641 245.346 904.758 245.972C919.055 322.293 860.576 372.201 798.604 402.255C745.861 427.834 686.905 444.571 636.267 475.111C593.885 500.671 552.778 537.332 527.252 580.301C527.137 580.481 526.494 581.054 526.311 581.226C522.974 572.205 539.388 539.899 543.659 530.59C574.013 464.416 629.451 418.058 692.82 384.61C734.155 362.792 778.776 346.113 818.569 321.258C853.657 299.484 877.814 276.259 903.93 244.391Z"/></svg>
